<svg width="100" height="100" viewBox="0 0 100 100" fill="none" xmlns="http://www.w3.org/2000/svg">
  <defs>
    <radialGradient id="wheel-bg" cx="50%" cy="50%" r="50%">
      <stop offset="0%" stop-color="#23272a"/>
      <stop offset="100%" stop-color="#111"/>
    </radialGradient>
    <linearGradient id="spoke" x1="0" y1="0" x2="0" y2="1">
      <stop offset="0%" stop-color="#eab308"/>
      <stop offset="100%" stop-color="#fffbe6"/>
    </linearGradient>
  </defs>
  <circle cx="50" cy="50" r="48" fill="url(#wheel-bg)" stroke="#eab308" stroke-width="4"/>
  <circle cx="50" cy="50" r="22" fill="#eab308" stroke="#23272a" stroke-width="4"/>
  <g>
    <rect x="48" y="6" width="4" height="22" rx="2" fill="url(#spoke)"/>
    <rect x="48" y="72" width="4" height="22" rx="2" fill="url(#spoke)"/>
    <rect x="6" y="48" width="22" height="4" rx="2" fill="url(#spoke)"/>
    <rect x="72" y="48" width="22" height="4" rx="2" fill="url(#spoke)"/>
    <rect x="20" y="20" width="4" height="22" rx="2" transform="rotate(-45 20 20)" fill="url(#spoke)"/>
    <rect x="76" y="20" width="4" height="22" rx="2" transform="rotate(45 76 20)" fill="url(#spoke)"/>
    <rect x="20" y="76" width="4" height="22" rx="2" transform="rotate(45 20 76)" fill="url(#spoke)"/>
    <rect x="76" y="76" width="4" height="22" rx="2" transform="rotate(-45 76 76)" fill="url(#spoke)"/>
  </g>
  <circle cx="50" cy="50" r="8" fill="#fffbe6" stroke="#eab308" stroke-width="2"/>
  <ellipse cx="50" cy="50" rx="40" ry="8" fill="#eab30822"/>
</svg>
